#!OML:ASF I:\Actors\actors\Patient Classification 2\Patient 1\Session 1\actor1.ASF
:FULLY-SPECIFIED
:DEGREES
676
root -0.693664 18.7177 5.65753 3.71925 -1.49825 -0.91044
lowerback 2.91873 0.895696 0.244847
upperback 0.340045 1.21301 0.830025
thorax -1.29997 0.606395 0.664534
lowerneck -17.2171 -2.98607 -0.342103
upperneck 17.6101 -4.63901 2.94666
head 8.39957 -1.90382 0.479933
rclavicle 1.2101e-014 0
rhumerus -86.2266 5.57525 -100.595
rradius 74.9646
rwrist -25.5869
rhand -1.21613 -54.0112
rfingers 7.12502
rthumb 24.425 637.526
lclavicle 1.2101e-014 0
lhumerus -65.6223 -20.5584 102.826
lradius 97.1871
lwrist 32.0952
lhand -11.5721 -20.1919
lfingers 7.12502
lthumb 14.4693 9.28367
rfemur 0 0 0
rtibia 0
rfoot 0 0
rtoes 0
lfemur -5.90009 -8.37294 -13.4161
ltibia 20.6414
lfoot -24.268 16.8752
ltoes -54.0904
677
root -0.692179 18.7189 5.64776 3.85813 -1.61138 -0.948124
lowerback 2.66795 0.933351 0.276707
upperback 0.182749 1.26309 0.780862
thorax -1.31937 0.631325 0.597117
lowerneck -17.189 -2.99862 -0.398764
upperneck 17.8609 -4.65316 2.9532
head 8.48111 -1.90987 0.488688
rclavicle 3.83903e-015 1.25234e-014
rhumerus -84.4062 6.24825 -99.2856
rradius 73.2811
rwrist -22.1561
rhand -2.24467 -54.2099
rfingers 7.12502
rthumb 23.4387 637.198
lclavicle 3.83903e-015 1.25234e-014
lhumerus -64.4903 -21.0251 102.568
lradius 95.0678
lwrist 31.3621
lhand -10.8295 -19.5221
lfingers 7.12502
lthumb 15.1848 9.9007
rfemur 0 0 0
rtibia 0
rfoot 0 0
rtoes 0
lfemur -6.08067 -8.26539 -13.379
ltibia 20.6391
lfoot -24.0841 17.1254
ltoes -53.8019
678
root -0.69131 18.7196 5.63836 3.92664 -1.75293 -0.852713
lowerback 2.44781 0.968628 0.142428
upperback 0.0594117 1.30472 0.69933
thorax -1.32384 0.652881 0.589955
lowerneck -17.1316 -2.98919 -0.453837
upperneck 18.052 -4.64119 2.98892
head 8.53771 -1.90185 0.510977
rclavicle -6.8705e-015 -4.96962e-015
rhumerus -82.452 6.85506 -97.9509
rradius 71.5799
rwrist -18.745
rhand -3.59691 -53.8571
rfingers 7.12502
rthumb 22.141 637.391
lclavicle -6.8705e-015 -4.96962e-015
lhumerus -63.2421 -21.485 102.25
lradius 92.7646
lwrist 30.3715
lhand -10.138 -18.9027
lfingers 7.12502
lthumb 15.8508 10.4685
rfemur 0 0 0
rtibia 0
rfoot 0 0
rtoes 0
lfemur -6.16791 -7.98089 -13.475
ltibia 20.619
lfoot -23.9604 17.0584
ltoes -54.4095
679
root -0.692441 18.7181 5.63179 3.83072 -1.9525 -0.775333
lowerback 2.35411 1.0088 -0.0295159
upperback -0.0117533 1.35266 0.6305
thorax -1.34701 0.677878 0.615032
lowerneck -16.896 -2.96264 -0.559575
upperneck 18.0348 -4.61075 3.15258
head 8.49625 -1.88086 0.590272
rclavicle 1.38528e-014 -6.95746e-016
rhumerus -80.401 7.40829 -96.6701
rradius 69.8109
rwrist -15.258
rhand -6.83313 -52.4556
rfingers 7.12502
rthumb 19.0313 638.455
lclavicle 1.38528e-014 -6.95746e-016
lhumerus -61.9942 -21.9428 101.986
lradius 90.4537
lwrist 29.4904
lhand -9.76758 -18.1466
lfingers 7.12502
lthumb 16.2075 11.1959
rfemur 0 0 0
rtibia 0
rfoot 0 0
rtoes 0
lfemur -6.02876 -7.71553 -13.5739
ltibia 20.5741
lfoot -23.9594 16.968
ltoes -53.8774
680
root -0.695065 18.717 5.62587 3.71796 -2.14572 -0.749975
lowerback 2.29094 1.02485 -0.195101
upperback -0.0835508 1.36948 0.606272
thorax -1.38865 0.687563 0.682754
lowerneck -16.6421 -2.92133 -0.594569
upperneck 17.9737 -4.54842 3.18431
head 8.43063 -1.85496 0.617952
rclavicle 1.90088e-015 -7.7526e-015
rhumerus -78.1572 8.00739 -95.3095
rradius 68.1034
rwrist -12.5795
rhand -10.4443 -50.9081
rfingers 7.12502
rthumb 15.5557 639.697
lclavicle 1.90088e-015 -7.7526e-015
lhumerus -60.7309 -22.2395 101.779
lradius 88.1604
lwrist 28.8763
lhand -9.52075 -17.2276
lfingers 7.12502
lthumb 16.4451 12.0954
rfemur 0 0 0
rtibia 0
rfoot 0 0
rtoes 0
lfemur -5.83904 -7.84964 -13.6435
ltibia 20.5218
lfoot -24.1699 17.1915
ltoes -54.3059
